<svg xmlns="http://www.w3.org/2000/svg" version="1.1" xmlns:xlink="http://www.w3.org/1999/xlink" xmlns:svgjs="http://svgjs.dev/svgjs" width="48px" height="48px"><svg xmlns="http://www.w3.org/2000/svg" xmlns:xlink="http://www.w3.org/1999/xlink" viewBox="0,0,256,256" width="48px" height="48px" fill-rule="none"><g fill="none" fill-rule="none" stroke="none" stroke-width="1" stroke-linecap="butt" stroke-linejoin="miter" stroke-miterlimit="10" stroke-dasharray="" stroke-dashoffset="0" font-family="none" font-weight="none" font-size="none" text-anchor="none" style="mix-blend-mode: normal"><g transform="scale(5.33333,5.33333)"><path d="M8.447,41.703l-1.302,-34.671c-0.041,-1.145 0.839,-2.114 1.982,-2.184l23.108,-1.445l1.765,0.597l2.295,-0.851l2.316,-0.145c1.163,-0.074 2.166,0.809 2.241,1.972c0.003,0.045 0.004,0.091 0.004,0.137v37.777c-0.001,1.167 -0.948,2.112 -2.115,2.111c-0.031,0 -0.062,-0.001 -0.092,-0.002l-28.186,-1.266c-1.098,-0.049 -1.974,-0.932 -2.016,-2.031z" fill="#8636ed" fill-rule="nonzero"></path><path d="M37.29,3.09l-0.99,0.06l-2.3,0.85l-1.76,-0.6l-1.01,0.06l-0.19,4.66c-0.03,0.73 0.54,1.34 1.27,1.37h0.04c0.29,0 0.57,-0.09 0.8,-0.27l1.23,-0.93l0.95,0.75c0.23,0.18 0.52,0.28 0.82,0.28c0.4,0 0.78,-0.18 1.03,-0.5c0.19,-0.25 0.29,-0.55 0.28,-0.86zM27.23,20.79c-1.91,-1.01 -3.43,-1.81 -3.43,-2.92c0,-0.5 0.08,-0.9 0.99,-0.9c0.42,0 0.57,0.06 0.68,0.18c0.14,0.14 0.44,0.62 0.39,2.09c0,1.47 2.07,1.47 3.07,1.47c1.04,0 3.95,-0.15 4.82,-0.83l0.38,-0.3v-0.49c0,-6.06 -3.46,-9.54 -9.49,-9.54c-5.91,0 -9.58,3.25 -9.58,8.47c0,5.07 4.02,7.33 6.95,8.97c0.08,0.05 0.16,0.09 0.23,0.13c-0.73,-0.21 -1.82,-0.31 -3.33,-0.31c-3.1,0 -3.84,0.54 -4.04,1.48c-0.23,3.18 0.48,5.68 2.1,7.41c1.7,1.82 4.33,2.75 7.82,2.75c5.8,0 9.7,-3.34 9.7,-8.3c0,-5.51 -4.2,-7.73 -7.26,-9.36zM24.71,31.12c-0.58,0 -0.76,-0.12 -0.86,-0.21c-0.2,-0.22 -0.44,-0.83 -0.4,-2.55c0,-0.26 -0.07,-0.48 -0.22,-0.67c1.35,0.81 2.35,1.58 2.35,2.53c0,0.69 -0.2,0.9 -0.87,0.9z" fill="#000000" fill-rule="evenodd" opacity="0.05"></path><path d="M36.79,3.12l-0.49,0.03l-2.3,0.85l-1.76,-0.6l-0.51,0.03l-0.19,4.71c-0.02,0.45 0.33,0.83 0.78,0.85h0.03c0.18,0 0.35,-0.06 0.49,-0.16l1.54,-1.17l1.26,0.99c0.15,0.11 0.32,0.17 0.51,0.17c0.25,0 0.48,-0.11 0.64,-0.31c0.12,-0.15 0.18,-0.34 0.17,-0.53zM27,21.24c-2.07,-1.1 -3.7,-1.96 -3.7,-3.37c0,-0.6 0.16,-1.4 1.49,-1.4c0.43,0 0.77,0.05 1.04,0.33c0.39,0.41 0.57,1.24 0.53,2.44c0,0.85 1.3,0.97 2.57,0.97c1.45,0 3.88,-0.23 4.51,-0.73l0.19,-0.15v-0.24c0,-5.83 -3.19,-9.04 -8.99,-9.04c-5.6,0 -9.08,3.05 -9.08,7.97c0,4.78 3.71,6.86 6.7,8.54c2.05,1.15 3.82,2.15 3.82,3.66c0,0.97 -0.42,1.4 -1.37,1.4c-0.59,0 -0.96,-0.11 -1.21,-0.37c-0.42,-0.42 -0.59,-1.34 -0.55,-2.89c0,-0.29 0,-1.05 -4.04,-1.05c-3.31,0 -3.46,0.63 -3.54,1.01c-0.22,3.04 0.44,5.41 1.96,7.04c1.6,1.72 4.11,2.59 7.46,2.59c5.5,0 9.2,-3.14 9.2,-7.8c0,-5.21 -3.88,-7.26 -6.99,-8.91z" fill="#000000" fill-rule="evenodd" opacity="0.07"></path><path d="M36.293,3.149l-4.057,0.252l-0.197,4.761c-0.007,0.174 0.128,0.32 0.302,0.328c0.073,0.003 0.144,-0.019 0.202,-0.063l1.848,-1.403l1.562,1.231c0.136,0.108 0.335,0.085 0.442,-0.051c0.046,-0.059 0.07,-0.132 0.068,-0.207l-0.168,-4.847zM33.135,19.088c-0.741,0.577 -6.277,0.97 -6.277,0.149c0.118,-3.135 -1.285,-3.272 -2.066,-3.272c-0.739,0 -1.987,0.223 -1.987,1.903c0,1.711 1.823,2.677 3.963,3.811c3.039,1.611 6.72,3.562 6.72,8.467c0,4.704 -3.822,7.3 -8.694,7.3c-5.029,0 -9.425,-2.035 -8.929,-9.089c0.195,-0.827 6.59,-0.63 6.59,0c-0.08,2.911 0.584,3.767 2.26,3.767c1.287,0 1.871,-0.71 1.871,-1.903c0,-1.808 -1.898,-2.875 -4.084,-4.101c-2.959,-1.661 -6.441,-3.616 -6.441,-8.104c0,-4.477 3.079,-7.463 8.576,-7.463c5.497,0 8.498,2.941 8.498,8.535z" fill="#ffffff" fill-rule="evenodd"></path></g></g></svg><style>@media (prefers-color-scheme: light) { :root { filter: none; } }
@media (prefers-color-scheme: dark) { :root { filter: none; } }
</style></svg>